<?xml version="1.0" encoding="UTF-8" standalone="no"?>
<!-- Created with Inkscape (http://www.inkscape.org/) -->

<svg
   xmlns:dc="http://purl.org/dc/elements/1.1/"
   xmlns:cc="http://creativecommons.org/ns#"
   xmlns:rdf="http://www.w3.org/1999/02/22-rdf-syntax-ns#"
   xmlns:svg="http://www.w3.org/2000/svg"
   xmlns="http://www.w3.org/2000/svg"
   xmlns:sodipodi="http://sodipodi.sourceforge.net/DTD/sodipodi-0.dtd"
   xmlns:inkscape="http://www.inkscape.org/namespaces/inkscape"
   width="512"
   height="128"
   viewBox="0 0 135.46666 33.866668"
   version="1.1"
   id="svg4052"
   sodipodi:docname="suits.svg"
   inkscape:version="0.92.4 5da689c313, 2019-01-14"
   inkscape:export-filename="/home/paul/suits.png"
   inkscape:export-xdpi="96"
   inkscape:export-ydpi="96">
  <defs
     id="defs4046" />
  <sodipodi:namedview
     id="base"
     pagecolor="#ffffff"
     bordercolor="#666666"
     borderopacity="1.0"
     inkscape:pageopacity="0.0"
     inkscape:pageshadow="2"
     inkscape:zoom="0.98994949"
     inkscape:cx="159.5939"
     inkscape:cy="23.421691"
     inkscape:document-units="mm"
     inkscape:current-layer="layer1"
     showgrid="false"
     inkscape:window-width="1918"
     inkscape:window-height="1059"
     inkscape:window-x="0"
     inkscape:window-y="19"
     inkscape:window-maximized="0"
     units="px" />
  <metadata
     id="metadata4049">
    <rdf:RDF>
      <cc:Work
         rdf:about="">
        <dc:format>image/svg+xml</dc:format>
        <dc:type
           rdf:resource="http://purl.org/dc/dcmitype/StillImage" />
        <dc:title />
        <dc:title />
      </cc:Work>
    </rdf:RDF>
  </metadata>
  <g
     inkscape:label="Layer 1"
     inkscape:groupmode="layer"
     id="layer1"
     transform="translate(0,-263.13332)">
    <ellipse
       style="fill:#000000;stroke-width:0.05473121"
       id="path158"
       cx="44.065151"
       cy="-283.64957"
       rx="8.0818186"
       ry="8.0241232"
       transform="scale(1,-1)" />
    <ellipse
       style="fill:#000000;stroke-width:0.05473121"
       id="path158-2"
       cx="57.534847"
       cy="-283.64957"
       rx="8.0818186"
       ry="8.0241232"
       transform="scale(1,-1)" />
    <rect
       style="fill:#000000;stroke-width:0.14204456"
       id="rect4032"
       width="5.4476113"
       height="4.1197262"
       x="48.609566"
       y="-280.47137"
       transform="scale(1,-1)" />
    <path
       style="fill:#000000;stroke-width:0.17755407"
       d="m 50.819761,281.50992 a 6.7347378,13.373516 0 0 1 -6.734674,13.3734 h 13.469698 a 6.7347378,13.373516 0 0 1 -6.735024,-13.3734 z"
       id="rect4083"
       inkscape:connector-curvature="0" />
    <ellipse
       style="fill:#000000;stroke-width:0.05473121"
       id="path158-0"
       cx="50.74136"
       cy="-273.27411"
       rx="8.0818186"
       ry="8.0241232"
       transform="scale(1,-1)" />
    <path
       style="fill:#ff0000;stroke-width:0.29292011"
       d="m 118.5333,263.13378 a 12.70001,16.933347 0 0 0 -0.12572,0.006 13.854545,19.352147 0 0 1 -12.57035,16.81878 12.70001,16.933347 0 0 0 -0.004,0.10869 12.70001,16.933347 0 0 0 0.001,0.0507 13.854546,19.352148 0 0 1 12.57486,16.8743 12.70001,16.933347 0 0 0 0.12402,0.008 12.70001,16.933347 0 0 0 0.11952,-0.006 13.854546,19.352148 0 0 1 12.5788,-16.87901 12.70001,16.933347 0 0 0 0.002,-0.0485 12.70001,16.933347 0 0 0 -0.003,-0.11097 13.854545,19.352147 0 0 1 -12.56753,-16.81345 12.70001,16.933347 0 0 0 -0.12966,-0.009 z"
       id="rect124"
       inkscape:connector-curvature="0" />
    <ellipse
       style="fill:#ff0000;stroke-width:0.05765673"
       id="path158-6"
       cx="77.931824"
       cy="274.15485"
       rx="8.0818186"
       ry="8.9048681" />
    <ellipse
       style="fill:#ff0000;stroke-width:0.05765673"
       id="path158-2-7"
       cx="91.401512"
       cy="274.15485"
       rx="8.0818186"
       ry="8.9048681" />
    <path
       sodipodi:type="star"
       style="fill:#ff0000;stroke-width:0.26458332"
       id="path3905"
       sodipodi:sides="3"
       sodipodi:cx="14.195421"
       sodipodi:cy="280.60916"
       sodipodi:r1="16.390837"
       sodipodi:r2="8.3593264"
       sodipodi:arg1="-0.52359878"
       sodipodi:arg2="0.52359878"
       inkscape:flatsided="false"
       inkscape:rounded="0.01"
       inkscape:randomized="0"
       d="m 28.390302,272.41374 c 0.07098,0.12294 -6.884513,12.25215 -6.955492,12.37508 C 21.363831,284.91176 14.33738,297 14.195421,297 14.053463,297 7.0270113,284.91176 6.9560322,284.78882 6.8850531,284.66589 -0.07043894,272.53668 5.4019772e-4,272.41374 0.07151934,272.2908 14.053463,272.24984 14.195421,272.24984 c 0.141959,0 14.123902,0.041 14.194881,0.1639 z"
       inkscape:transform-center-y="2.4080587"
       transform="matrix(0.89384147,0,0,0.59965052,71.982522,116.78712)" />
    <rect
       style="fill:#ff0000;stroke-width:0.14963718"
       id="rect4032-5"
       width="5.4476113"
       height="4.5719171"
       x="82.476234"
       y="277.68192" />
    <ellipse
       style="fill:#000000;stroke-width:0.05447565"
       id="path158-3"
       cx="10.198486"
       cy="-283.75424"
       rx="8.0818195"
       ry="7.9493632"
       transform="scale(1,-1)" />
    <ellipse
       style="fill:#000000;stroke-width:0.05447565"
       id="path158-2-5"
       cx="23.66819"
       cy="-283.75424"
       rx="8.0818195"
       ry="7.9493632"
       transform="scale(1,-1)" />
    <path
       sodipodi:type="star"
       style="fill:#000000;stroke-width:0.26458332"
       id="path3905-6"
       sodipodi:sides="3"
       sodipodi:cx="14.195421"
       sodipodi:cy="280.60916"
       sodipodi:r1="16.390837"
       sodipodi:r2="8.3593264"
       sodipodi:arg1="-0.52359878"
       sodipodi:arg2="0.52359878"
       inkscape:flatsided="false"
       inkscape:rounded="0.01"
       inkscape:randomized="0"
       d="m 28.390302,272.41374 c 0.07098,0.12294 -6.884513,12.25215 -6.955492,12.37508 C 21.363831,284.91176 14.33738,297 14.195421,297 14.053463,297 7.0270113,284.91176 6.9560322,284.78882 6.8850531,284.66589 -0.07043894,272.53668 5.4019772e-4,272.41374 0.07151934,272.2908 14.053463,272.24984 14.195421,272.24984 c 0.141959,0 14.123902,0.041 14.194881,0.1639 z"
       inkscape:transform-center-y="-2.1496648"
       transform="matrix(0.89384153,0,0,-0.53530714,4.2492069,424.23621)"
       inkscape:transform-center-x="-3.6644475e-06" />
    <rect
       style="fill:#000000;stroke-width:0.14138129"
       id="rect4032-2"
       width="5.4476118"
       height="4.0813432"
       x="14.742912"
       y="-280.60565"
       transform="scale(1,-1)" />
    <path
       style="fill:#000000;stroke-width:0.17672502"
       d="m 16.953107,281.63452 a 6.7347387,13.248916 0 0 1 -6.73468,13.2488 h 13.469696 a 6.7347387,13.248917 0 0 1 -6.735016,-13.2488 z"
       id="rect4083-9"
       inkscape:connector-curvature="0" />
  </g>
</svg>
